<svg width="18" height="16" viewBox="0 0 18 16" fill="none" xmlns="http://www.w3.org/2000/svg">
<path d="M13.1665 0.916504H4.83317C2.33317 0.916504 0.666504 2.1665 0.666504 5.08317V10.9165C0.666504 13.8332 2.33317 15.0832 4.83317 15.0832H13.1665C15.6665 15.0832 17.3332 13.8332 17.3332 10.9165V5.08317C17.3332 2.1665 15.6665 0.916504 13.1665 0.916504ZM13.5582 5.9915L10.9498 8.07484C10.3998 8.5165 9.69984 8.73317 8.99984 8.73317C8.29984 8.73317 7.5915 8.5165 7.04984 8.07484L4.4415 5.9915C4.17484 5.77484 4.13317 5.37484 4.3415 5.10817C4.55817 4.8415 4.94984 4.7915 5.2165 5.00817L7.82484 7.0915C8.45817 7.59984 9.53317 7.59984 10.1665 7.0915L12.7748 5.00817C13.0415 4.7915 13.4415 4.83317 13.6498 5.10817C13.8665 5.37484 13.8248 5.77484 13.5582 5.9915Z" fill="white"/>
</svg>
