<svg width="16" height="13" viewBox="0 0 16 13" fill="none" xmlns="http://www.w3.org/2000/svg">
<path fill-rule="evenodd" clip-rule="evenodd" d="M1.3581 5.52888C5.49242 3.72762 8.24928 2.54013 9.62868 1.96639C13.5672 0.32824 14.3855 0.0436763 14.919 0.0342799C15.0363 0.0322132 15.2986 0.0612881 15.4685 0.199164C15.612 0.315583 15.6515 0.472849 15.6703 0.583228C15.6892 0.693606 15.7128 0.945051 15.6941 1.14152C15.4806 3.38402 14.5571 8.82597 14.0873 11.3376C13.8885 12.4004 13.4971 12.7567 13.1181 12.7916C12.2945 12.8674 11.6692 12.2473 10.8715 11.7244C9.62329 10.9062 8.91814 10.3969 7.70655 9.59846C6.30634 8.67575 7.21404 8.16862 8.01201 7.33981C8.22084 7.12291 11.8495 3.82235 11.9197 3.52294C11.9285 3.48549 11.9367 3.34591 11.8538 3.27221C11.7708 3.1985 11.6484 3.22371 11.5601 3.24375C11.4349 3.27216 9.44093 4.59013 5.57811 7.19764C5.01211 7.5863 4.49945 7.77566 4.04013 7.76574C3.53376 7.7548 2.55971 7.47943 1.83561 7.24405C0.947461 6.95535 0.241581 6.80271 0.303048 6.31241C0.335063 6.05703 0.686745 5.79585 1.3581 5.52888Z" fill="#259CD8"/>
</svg>
