<svg width="38" height="28" viewBox="0 0 38 28" fill="none" xmlns="http://www.w3.org/2000/svg">
<path fill-rule="evenodd" clip-rule="evenodd" d="M37.5954 19.3975L35.2506 20.2987C32.0042 21.4133 27.1815 21.4285 24.1034 19.9825C20.5393 18.3081 17.9907 13.3286 22.0012 10.0766C24.7743 7.82779 28.6147 7.25535 32.1762 7.36429C35.9422 7.47891 36.8294 8.46635 37.3371 8.46194L37.3277 3.9794C35.3825 3.01904 32.405 1.98562 30.2535 1.49442C24.1202 0.178245 20.9908 0.0415888 14.5061 0.734311C11.8438 1.01896 8.15906 2.37229 5.94812 3.89565C1.36178 7.05446 -0.792259 12.9961 1.47683 18.1997C4.68945 25.5672 13.4669 28.0049 20.8313 27.9866C25.2095 27.9759 33.4011 26.7253 37.561 24.2409L37.5954 19.3975Z" fill="#CBCECF"/>
</svg>
