<svg width="18" height="18" viewBox="0 0 18 18" fill="none" xmlns="http://www.w3.org/2000/svg">
<path d="M13.1665 0.666504H4.83317C2.53317 0.666504 0.666504 2.52484 0.666504 4.8165V9.79984V10.6332C0.666504 12.9248 2.53317 14.7832 4.83317 14.7832H6.08317C6.30817 14.7832 6.60817 14.9332 6.74984 15.1165L7.99984 16.7748C8.54984 17.5082 9.44984 17.5082 9.99984 16.7748L11.2498 15.1165C11.4082 14.9082 11.6582 14.7832 11.9165 14.7832H13.1665C15.4665 14.7832 17.3332 12.9248 17.3332 10.6332V4.8165C17.3332 2.52484 15.4665 0.666504 13.1665 0.666504ZM5.6665 8.99984C5.19984 8.99984 4.83317 8.62484 4.83317 8.1665C4.83317 7.70817 5.20817 7.33317 5.6665 7.33317C6.12484 7.33317 6.49984 7.70817 6.49984 8.1665C6.49984 8.62484 6.13317 8.99984 5.6665 8.99984ZM8.99984 8.99984C8.53317 8.99984 8.1665 8.62484 8.1665 8.1665C8.1665 7.70817 8.5415 7.33317 8.99984 7.33317C9.45817 7.33317 9.83317 7.70817 9.83317 8.1665C9.83317 8.62484 9.4665 8.99984 8.99984 8.99984ZM12.3332 8.99984C11.8665 8.99984 11.4998 8.62484 11.4998 8.1665C11.4998 7.70817 11.8748 7.33317 12.3332 7.33317C12.7915 7.33317 13.1665 7.70817 13.1665 8.1665C13.1665 8.62484 12.7998 8.99984 12.3332 8.99984Z" fill="white"/>
</svg>
