<svg width="17" height="15" viewBox="0 0 17 15" fill="none" xmlns="http://www.w3.org/2000/svg">
<path fill-rule="evenodd" clip-rule="evenodd" d="M2.69107 4.74363L0.833496 1.84117L2.7988 0.583374L4.32129 2.96227H16.5372L13.0372 9.96227H5.82226L2.69107 4.74363ZM5.74337 5.2956L7.14337 7.62894H11.5951L12.7618 5.2956H5.74337Z" fill="white"/>
<path d="M8.81615 12.8789C8.81615 13.8454 8.03264 14.6289 7.06615 14.6289C6.09965 14.6289 5.31615 13.8454 5.31615 12.8789C5.31615 11.9124 6.09965 11.1289 7.06615 11.1289C8.03264 11.1289 8.81615 11.9124 8.81615 12.8789Z" fill="white"/>
<path d="M11.7328 14.6289C12.6993 14.6289 13.4828 13.8454 13.4828 12.8789C13.4828 11.9124 12.6993 11.1289 11.7328 11.1289C10.7663 11.1289 9.98281 11.9124 9.98281 12.8789C9.98281 13.8454 10.7663 14.6289 11.7328 14.6289Z" fill="white"/>
</svg>
