<svg width="20" height="18" viewBox="0 0 20 18" fill="none" xmlns="http://www.w3.org/2000/svg">
<path fill-rule="evenodd" clip-rule="evenodd" d="M14.4458 11.968C15.8088 10.7473 16.6665 8.97391 16.6665 7.00016C16.6665 3.31826 13.6818 0.333496 9.99988 0.333496C6.31798 0.333496 3.33321 3.31826 3.33321 7.00016C3.33321 8.97392 4.19095 10.7473 5.55401 11.968C3.54016 12.8927 1.86386 14.4261 0.760742 16.3326L3.07053 17.6662C4.45386 15.2753 7.03903 13.6668 9.9999 13.6668C12.9607 13.6668 15.5459 15.2753 16.9292 17.6662L19.239 16.3326C18.1359 14.4261 16.4596 12.8926 14.4458 11.968ZM13.9999 7.00016C13.9999 9.2093 12.209 11.0002 9.99988 11.0002C7.79074 11.0002 5.99988 9.2093 5.99988 7.00016C5.99988 4.79102 7.79074 3.00016 9.99988 3.00016C12.209 3.00016 13.9999 4.79102 13.9999 7.00016Z" fill="#CBCECF"/>
</svg>
