<svg width="10" height="10" viewBox="0 0 10 10" fill="none" xmlns="http://www.w3.org/2000/svg">
<path fill-rule="evenodd" clip-rule="evenodd" d="M2.79914 1.18882C2.63151 0.816671 2.4553 0.808116 2.29627 0.803838C2.16733 0.799561 2.0169 0.799561 1.86647 0.799561C1.71604 0.799561 1.47535 0.855169 1.26905 1.0776C1.06275 1.30004 0.486816 1.83901 0.486816 2.93834C0.486816 4.0334 1.29054 5.09424 1.40229 5.24395C1.51404 5.39367 2.95386 7.71639 5.2275 8.6104C7.11862 9.35469 7.50544 9.20498 7.91375 9.16648C8.32205 9.12798 9.23753 8.62751 9.42664 8.10565C9.61145 7.58378 9.61145 7.13892 9.55558 7.04481C9.4997 6.9507 9.34927 6.89509 9.12578 6.78388C8.90228 6.67266 7.802 6.13369 7.59569 6.05669C7.38939 5.98397 7.23896 5.94547 7.09283 6.16791C6.9424 6.39034 6.5126 6.89082 6.38366 7.04053C6.25472 7.19025 6.12148 7.20736 5.89799 7.09614C5.67449 6.98492 4.95243 6.74966 4.09713 5.98825C3.43094 5.39795 2.97965 4.66648 2.85071 4.44405C2.72177 4.22161 2.83782 4.10184 2.94956 3.99063C3.04842 3.89224 3.17306 3.72969 3.28481 3.60137C3.39656 3.47304 3.43524 3.37893 3.5083 3.22922C3.58137 3.0795 3.54699 2.95118 3.49111 2.83996C3.43524 2.73302 2.99684 1.62941 2.79914 1.18882Z" fill="white"/>
</svg>
